ply
format ascii 1.0
element vertex 166
property float32 x
property float32 y
property float32 z
property uchar red
property uchar green
property uchar blue
element face 328
property list uint8 int32 vertex_index
end_header
-0.002366 -0.956858 -0.020386 180 180 180
0.013842 -0.956858 -0.013672 180 180 180
-0.007502 -0.999969 0.002535 180 180 180
-0.018574 -0.956858 -0.013672 180 180 180
-0.025287 -0.956858 0.002535 180 180 180
-0.018574 -0.956858 0.018743 180 180 180
-0.002366 -0.956858 0.025456 180 180 180
0.013842 -0.956858 0.018743 180 180 180
0.020555 -0.956858 0.002535 180 180 180
0.030851 0.023834 -0.030682 180 180 180
-0.002366 0.023834 -0.044441 180 180 180
-0.002366 0.028646 0.002535 180 180 180
-0.035583 0.023834 -0.030682 180 180 180
-0.049342 0.023834 0.002535 180 180 180
-0.035583 0.023834 0.035752 180 180 180
-0.002366 0.023834 0.049511 180 180 180
0.030851 0.023834 0.035752 180 180 180
0.044610 0.023834 0.002535 180 180 180
-0.042629 0.107565 0.150105 180 180 180
0.029741 0.114259 0.019672 180 180 180
0.000337 0.005756 0.008637 180 180 180
-0.069638 -0.000610 0.135348 180 180 180
0.102569 0.120994 -0.111578 180 180 180
0.071158 0.012187 -0.118642 180 180 180
0.291255 0.148377 0.176582 180 180 180
0.367812 0.155329 0.038994 180 180 180
0.214960 0.193228 -0.047005 180 180 180
0.140390 0.186457 0.087013 180 180 180
0.215176 0.141469 0.313313 180 180 180
0.066285 0.179728 0.220195 180 180 180
0.120030 0.248775 -0.123205 180 180 180
0.243285 0.253236 -0.024701 180 180 180
0.336055 0.263132 -0.141835 180 180 180
0.221890 0.258958 -0.233522 180 180 180
-0.018771 0.243619 -0.235055 180 180 180
0.074049 0.253552 -0.352253 180 180 180
0.005456 -0.033797 -0.007239 180 180 180
0.010103 0.093288 -0.001783 180 180 180
-0.106659 0.089756 -0.097285 180 180 180
-0.103169 -0.037769 -0.094476 180 180 180
0.158837 -0.028189 0.115943 180 180 180
0.155913 0.100189 0.112513 180 180 180
0.049436 0.196491 -0.043593 180 180 180
-0.081760 0.191471 -0.147027 180 180 180
0.179514 0.201022 0.064743 180 180 180
0.020392 0.023408 -0.020503 180 180 180
0.017736 0.049819 -0.017848 180 180 180
-0.000601 0.049819 -0.025444 180 180 180
-0.000601 0.023408 -0.029199 180 180 180
-0.018939 0.049819 -0.017848 180 180 180
-0.021594 0.023408 -0.020503 180 180 180
-0.026534 0.049819 0.000490 180 180 180
-0.030289 0.023408 0.000490 180 180 180
-0.018939 0.049819 0.018827 180 180 180
-0.021594 0.023408 0.021482 180 180 180
-0.000601 0.049819 0.026423 180 180 180
-0.000601 0.023408 0.030178 180 180 180
0.017736 0.049819 0.018827 180 180 180
0.020392 0.023408 0.021482 180 180 180
0.025332 0.049819 0.000490 180 180 180
0.029087 0.023408 0.000490 180 180 180
-0.152578 0.162959 -0.019033 180 180 180
-0.010235 0.161016 0.026075 180 180 180
-0.012096 -0.001236 0.012099 180 180 180
-0.150312 0.000993 -0.031306 180 180 180
0.133000 0.159057 0.071470 180 180 180
0.126848 -0.003465 0.056219 180 180 180
-0.099481 0.291904 0.331091 180 180 180
0.050717 0.289494 0.378785 180 180 180
0.105563 0.251580 0.177202 180 180 180
-0.040737 0.253927 0.130746 180 180 180
-0.248741 0.294299 0.283695 180 180 180
-0.186124 0.256259 0.084579 180 180 180
-0.169504 0.174672 0.078825 180 180 180
-0.003144 0.178128 0.010407 180 180 180
-0.003692 -0.000913 0.003402 180 180 180
-0.165101 -0.004267 0.069784 180 180 180
0.164260 0.181607 -0.058441 180 180 180
0.158731 0.002462 -0.063397 180 180 180
0.004979 0.471943 0.021902 180 180 180
0.180557 0.475591 -0.050308 180 180 180
0.171474 0.311734 -0.054841 180 180 180
0.000451 0.308181 0.015495 180 180 180
-0.169504 0.468318 0.093660 180 180 180
-0.169504 0.304649 0.085391 180 180 180
0.014808 -0.001825 -0.006049 180 180 180
0.070045 -0.001576 -0.172357 180 180 180
0.046195 0.155526 -0.167741 180 180 180
-0.009465 0.155834 -0.001306 180 180 180
-0.115301 0.257512 -0.022315 180 180 180
-0.059530 0.257632 -0.188347 180 180 180
-0.222294 0.288368 -0.234760 180 180 180
-0.278064 0.288247 -0.068729 180 180 180
-0.175603 0.257381 0.157207 180 180 180
-0.338366 0.288117 0.110793 180 180 180
-0.069767 0.155704 0.178217 180 180 180
-0.045494 -0.001955 0.173473 180 180 180
0.005107 0.408419 0.015060 180 180 180
0.064956 0.416407 0.172873 180 180 180
0.067432 0.533102 0.163069 180 180 180
0.011899 0.525731 0.016630 180 180 180
-0.062492 0.399410 -0.163192 180 180 180
-0.060015 0.516185 -0.173003 180 180 180
-0.018126 0.007078 0.009690 180 180 180
-0.011183 0.127009 0.011295 180 180 180
-0.068434 0.119288 -0.139658 180 180 180
-0.070964 0.000065 -0.129642 180 180 180
0.056483 0.016982 0.206431 180 180 180
0.059018 0.136477 0.196391 180 180 180
-0.001421 0.295644 0.013551 180 180 180
-0.064873 0.287151 -0.153761 180 180 180
0.062576 0.304225 0.182298 180 180 180
-0.070964 0.000065 -0.129642 180 180 180
0.056483 0.016982 0.206431 180 180 180
-0.007964 0.044203 -0.013818 180 180 180
0.116578 0.044489 -0.070231 180 180 180
0.105343 0.124673 -0.092730 180 180 180
-0.019832 0.127295 -0.037772 180 180 180
-0.074876 0.188122 -0.166739 180 180 180
0.050338 0.180349 -0.221022 180 180 180
-0.006913 0.208292 -0.359265 180 180 180
-0.132405 0.217974 -0.305940 180 180 180
-0.210264 0.196527 -0.108045 180 180 180
-0.268094 0.228443 -0.248282 180 180 180
-0.154807 0.131183 0.022330 180 180 180
-0.142655 0.044346 0.047040 180 180 180
0.002202 -0.577388 -0.058944 180 180 180
0.048258 -0.577388 -0.039867 180 180 180
-0.043854 -0.577388 -0.039867 180 180 180
-0.062931 -0.577388 0.006189 180 180 180
-0.043854 -0.577388 0.052245 180 180 180
0.002202 -0.577388 0.071322 180 180 180
0.048258 -0.577388 0.052245 180 180 180
0.067335 -0.577388 0.006189 180 180 180
0.081274 -0.031166 -0.081105 180 180 180
-0.002366 -0.031166 -0.115750 180 180 180
-0.002366 -0.000744 -0.104525 180 180 180
0.073337 -0.000744 -0.073168 180 180 180
-0.086006 -0.031166 -0.081105 180 180 180
-0.078069 -0.000744 -0.073168 180 180 180
-0.120651 -0.031166 0.002535 180 180 180
-0.109426 -0.000744 0.002535 180 180 180
-0.086006 -0.031166 0.086175 180 180 180
-0.078069 -0.000744 0.078238 180 180 180
-0.002366 -0.031166 0.120820 180 180 180
-0.002366 -0.000744 0.109595 180 180 180
0.081274 -0.031166 0.086175 180 180 180
0.073337 -0.000744 0.078238 180 180 180
0.115919 -0.031166 0.002535 180 180 180
0.104694 -0.000744 0.002535 180 180 180
-0.073120 -0.315377 0.067972 180 180 180
-0.006455 -0.315377 0.095586 180 180 180
-0.005666 -0.168168 0.112157 180 180 180
-0.083186 -0.168168 0.080047 180 180 180
-0.100734 -0.315377 0.001307 180 180 180
-0.115296 -0.168168 0.002526 180 180 180
-0.073120 -0.315377 -0.065358 180 180 180
-0.083186 -0.168168 -0.074994 180 180 180
-0.006455 -0.315377 -0.092972 180 180 180
-0.005666 -0.168168 -0.107104 180 180 180
0.060210 -0.315377 -0.065358 180 180 180
0.071855 -0.168168 -0.074994 180 180 180
0.087824 -0.315377 0.001307 180 180 180
0.103965 -0.168168 0.002526 180 180 180
0.060210 -0.315377 0.067972 180 180 180
0.071855 -0.168168 0.080047 180 180 180
3 0 1 2
3 3 0 2
3 4 3 2
3 5 4 2
3 6 5 2
3 7 6 2
3 8 7 2
3 1 8 2
3 9 10 11
3 10 12 11
3 12 13 11
3 13 14 11
3 14 15 11
3 15 16 11
3 16 17 11
3 17 9 11
3 18 19 20
3 18 20 21
3 19 22 23
3 19 23 20
3 24 25 26
3 24 26 27
3 28 24 27
3 28 27 29
3 27 26 22
3 27 22 19
3 29 27 19
3 29 19 18
3 18 21 20
3 18 20 19
3 19 20 23
3 19 23 22
3 24 27 26
3 24 26 25
3 28 29 27
3 28 27 24
3 27 19 22
3 27 22 26
3 29 18 19
3 29 19 27
3 30 31 32
3 30 32 33
3 34 30 33
3 34 33 35
3 36 37 38
3 36 38 39
3 40 41 37
3 40 37 36
3 38 37 42
3 38 42 43
3 37 41 44
3 37 44 42
3 43 42 30
3 43 30 34
3 42 44 31
3 42 31 30
3 30 33 32
3 30 32 31
3 34 35 33
3 34 33 30
3 36 39 38
3 36 38 37
3 40 36 37
3 40 37 41
3 38 43 42
3 38 42 37
3 37 42 44
3 37 44 41
3 43 34 30
3 43 30 42
3 42 30 31
3 42 31 44
3 45 46 47
3 45 47 48
3 48 47 49
3 48 49 50
3 50 49 51
3 50 51 52
3 52 51 53
3 52 53 54
3 54 53 55
3 54 55 56
3 56 55 57
3 56 57 58
3 58 57 59
3 58 59 60
3 60 59 46
3 60 46 45
3 45 48 47
3 45 47 46
3 48 50 49
3 48 49 47
3 50 52 51
3 50 51 49
3 52 54 53
3 52 53 51
3 54 56 55
3 54 55 53
3 56 58 57
3 56 57 55
3 58 60 59
3 58 59 57
3 60 45 46
3 60 46 59
3 61 62 63
3 61 63 64
3 62 65 66
3 62 66 63
3 67 68 69
3 67 69 70
3 71 67 70
3 71 70 72
3 70 69 65
3 70 65 62
3 72 70 62
3 72 62 61
3 61 64 63
3 61 63 62
3 62 63 66
3 62 66 65
3 67 70 69
3 67 69 68
3 71 72 70
3 71 70 67
3 70 62 65
3 70 65 69
3 72 61 62
3 72 62 70
3 73 74 75
3 73 75 76
3 74 77 78
3 74 78 75
3 79 80 81
3 79 81 82
3 83 79 82
3 83 82 84
3 82 81 77
3 82 77 74
3 84 82 74
3 84 74 73
3 73 76 75
3 73 75 74
3 74 75 78
3 74 78 77
3 79 82 81
3 79 81 80
3 83 84 82
3 83 82 79
3 82 74 77
3 82 77 81
3 84 73 74
3 84 74 82
3 85 86 87
3 85 87 88
3 89 90 91
3 89 91 92
3 88 87 90
3 88 90 89
3 93 89 92
3 93 92 94
3 95 88 89
3 95 89 93
3 96 85 88
3 96 88 95
3 85 88 87
3 85 87 86
3 89 92 91
3 89 91 90
3 88 89 90
3 88 90 87
3 93 94 92
3 93 92 89
3 95 93 89
3 95 89 88
3 96 95 88
3 96 88 85
3 97 98 99
3 97 99 100
3 101 97 100
3 101 100 102
3 103 104 105
3 103 105 106
3 107 108 104
3 107 104 103
3 105 104 109
3 105 109 110
3 104 108 111
3 104 111 109
3 110 109 97
3 110 97 101
3 109 111 98
3 109 98 97
3 97 100 99
3 97 99 98
3 101 102 100
3 101 100 97
3 103 112 105
3 103 105 104
3 113 103 104
3 113 104 108
3 105 110 109
3 105 109 104
3 104 109 111
3 104 111 108
3 110 101 97
3 110 97 109
3 109 97 98
3 109 98 111
3 114 115 116
3 114 116 117
3 118 119 120
3 118 120 121
3 117 116 119
3 117 119 118
3 122 118 121
3 122 121 123
3 124 117 118
3 124 118 122
3 125 114 117
3 125 117 124
3 114 117 116
3 114 116 115
3 118 121 120
3 118 120 119
3 117 118 119
3 117 119 116
3 122 123 121
3 122 121 118
3 124 122 118
3 124 118 117
3 125 124 117
3 125 117 114
3 1 0 126
3 1 126 127
3 0 3 128
3 0 128 126
3 3 4 129
3 3 129 128
3 4 5 130
3 4 130 129
3 5 6 131
3 5 131 130
3 6 7 132
3 6 132 131
3 7 8 133
3 7 133 132
3 8 1 127
3 8 127 133
3 134 135 136
3 134 136 137
3 135 138 139
3 135 139 136
3 138 140 141
3 138 141 139
3 140 142 143
3 140 143 141
3 142 144 145
3 142 145 143
3 144 146 147
3 144 147 145
3 146 148 149
3 146 149 147
3 148 134 137
3 148 137 149
3 150 151 152
3 150 152 153
3 154 150 153
3 154 153 155
3 156 154 155
3 156 155 157
3 158 156 157
3 158 157 159
3 160 158 159
3 160 159 161
3 162 160 161
3 162 161 163
3 164 162 163
3 164 163 165
3 151 164 165
3 151 165 152
3 130 131 151
3 130 151 150
3 129 130 150
3 129 150 154
3 128 129 154
3 128 154 156
3 126 128 156
3 126 156 158
3 127 126 158
3 127 158 160
3 133 127 160
3 133 160 162
3 132 133 162
3 132 162 164
3 131 132 164
3 131 164 151
3 145 147 16
3 145 16 15
3 143 145 15
3 143 15 14
3 141 143 14
3 141 14 13
3 139 141 13
3 139 13 12
3 136 139 12
3 136 12 10
3 137 136 10
3 137 10 9
3 149 137 9
3 149 9 17
3 147 149 17
3 147 17 16
3 153 152 144
3 153 144 142
3 155 153 142
3 155 142 140
3 157 155 140
3 157 140 138
3 159 157 138
3 159 138 135
3 161 159 135
3 161 135 134
3 163 161 134
3 163 134 148
3 165 163 148
3 165 148 146
3 152 165 146
3 152 146 144
